<?xml version="1.0" encoding="utf-8"?>
<!-- Generator: Adobe Illustrator 16.0.4, SVG Export Plug-In . SVG Version: 6.00 Build 0)  -->
<!DOCTYPE svg PUBLIC "-//W3C//DTD SVG 1.1//EN" "http://www.w3.org/Graphics/SVG/1.1/DTD/svg11.dtd">
<svg version="1.1" id="Layer_1" xmlns="http://www.w3.org/2000/svg" xmlns:xlink="http://www.w3.org/1999/xlink" x="0px" y="0px"
	 width="226.506px" height="292.771px" viewBox="0 0 226.506 292.771" enable-background="new 0 0 226.506 292.771"
	 xml:space="preserve">
<path opacity="0.5" fill="#E5BDB9" d="M144.765,259.373c0,4.646-13.856,8.404-30.959,8.404c-17.097,0-30.963-3.758-30.963-8.404
	c0-4.643,13.866-8.404,30.963-8.404C130.908,250.969,144.765,254.73,144.765,259.373z"/>
<g>
	<path fill="#E5BDB9" d="M96.858,60.641c6.126,23.546,5.056,44.201-2.384,46.14c-7.45,1.935-18.441-15.591-24.562-39.137
		c-6.122-23.54-5.053-44.199,2.391-46.129C79.745,19.583,90.735,37.097,96.858,60.641z"/>
	<path fill="#FFFFFF" d="M93.385,73.167c3.518,13.557,3.164,25.366-0.79,26.396c-3.951,1.03-10.011-9.12-13.532-22.665
		c-3.521-13.541-3.181-25.353,0.786-26.384C83.798,49.492,89.856,59.631,93.385,73.167z"/>
	<path fill="#E5BDB9" d="M132.433,60.641c-6.122,23.542-5.054,44.201,2.394,46.14c7.438,1.926,18.434-15.591,24.559-39.137
		c6.124-23.543,5.054-44.199-2.394-46.129C149.553,19.578,138.561,37.093,132.433,60.641z"/>
	<path fill="#FFFFFF" d="M135.919,73.167c-3.526,13.557-3.17,25.366,0.779,26.396c3.955,1.03,10.016-9.12,13.536-22.668
		c3.521-13.537,3.174-25.349-0.784-26.381C145.501,49.484,139.438,59.631,135.919,73.167z"/>
	<path fill="#E5BDB9" d="M180.297,230.78c-0.029-3.053,2.426-5.548,5.477-5.574c3.048-0.033,5.551,2.414,5.58,5.467
		c0.035,3.055-2.417,5.555-5.471,5.582C182.83,236.286,180.329,233.839,180.297,230.78z"/>
	<path fill="#E5BDB9" d="M192.91,184.78c0,2.461-1.999,4.475-4.451,4.475l-5.219,0.008c-2.458,0.002-4.46-1.994-4.462-4.458
		l-0.027-19.476c-0.013-2.467,1.98-4.47,4.449-4.47l5.208-0.008c2.46-0.002,4.467,1.986,4.467,4.453L192.91,184.78z"/>
	<path fill="#E5BDB9" d="M48.391,165.272c0-2.474-1.991-4.47-4.462-4.476l-5.203-0.012c-2.46-0.005-4.459,1.99-4.465,4.454
		l-0.034,19.482c-0.005,2.459,1.991,4.465,4.46,4.468l5.197,0.011c2.46,0.005,4.467-1.994,4.467-4.461L48.391,165.272z"/>
	<g>
		<path fill="#DC5E7D" d="M37.741,110.607c-2.237,0-4.046,1.819-4.046,4.043c0,1.379,0.646,2.687,1.958,3.986
			c0.637,0.622,5.335,5.334,5.654,5.652c0.316-0.318,5.018-5.03,5.65-5.652c1.317-1.299,1.964-2.607,1.964-3.986
			c0-2.225-1.819-4.043-4.046-4.043c-1.484,0-2.83,0.804-3.547,2.105l-0.021,0.039l-0.02-0.039
			C40.572,111.411,39.228,110.607,37.741,110.607z"/>
	</g>
	<path fill="#E5BDB9" d="M175.397,149.744c-0.419-32.258-27.899-58.292-61.747-58.292c-33.843,0-61.317,26.033-61.747,58.292h-0.008
		v32.213h0.008c0.236,32.409,27.784,58.613,61.747,58.613s61.508-26.204,61.755-58.613l0,0v-32.213H175.397z"/>
	<path fill="#EEEEEF" d="M170.401,152.427c0,15.551-12.632,28.162-28.216,28.162h-57.07c-15.584,0-28.214-12.611-28.214-28.162l0,0
		c0-15.54,12.63-28.153,28.214-28.153h57.07C157.77,124.274,170.401,136.887,170.401,152.427L170.401,152.427z"/>
	<g>
		<path fill="#EEEEEF" d="M105.352,109.392c0,1.475-1.197,2.665-2.667,2.665c-1.466,0-2.651-1.19-2.651-2.665
			c0-1.463,1.186-2.659,2.651-2.659C104.154,106.733,105.352,107.928,105.352,109.392z"/>
		<path fill="#EEEEEF" d="M116.32,109.392c0,1.475-1.202,2.665-2.67,2.665c-1.474,0-2.662-1.19-2.662-2.665
			c0-1.463,1.188-2.659,2.662-2.659C115.118,106.733,116.32,107.928,116.32,109.392z"/>
		<path fill="#EEEEEF" d="M127.275,109.392c0,1.475-1.191,2.665-2.673,2.665c-1.462,0-2.65-1.19-2.65-2.665
			c0-1.463,1.188-2.659,2.65-2.659C126.084,106.733,127.275,107.928,127.275,109.392z"/>
	</g>
	<path fill="#DC5E7D" d="M129.1,172.973c0,0-4.886,0.679-7.773,1.687c-2.065,0.723-4.628,2.33-5.726,3.048
		c-0.413-0.323-0.934-0.528-1.505-0.528h-0.878c-0.574,0-1.092,0.205-1.519,0.528c-1.092-0.718-3.654-2.316-5.726-3.042
		c-2.876-1.002-7.771-1.669-7.771-1.669s-1.224,3.538-0.719,8.527c0.408,3.916,2.291,6.751,2.291,6.751s4.175-1.597,6.617-2.75
		c1.789-0.857,2.517-1.394,3.544-2.612c0.293-0.342,1.038-0.987,1.604-1.454c0.435,0.41,1.018,0.672,1.683,0.672h0.872
		c0.652,0,1.242-0.262,1.683-0.679c0.558,0.474,1.304,1.113,1.602,1.456c1.044,1.221,1.752,1.755,3.553,2.6
		c2.444,1.163,6.61,2.754,6.61,2.754s1.89-2.834,2.281-6.761C130.326,176.511,129.1,172.973,129.1,172.973z"/>
	<path fill="#433A33" d="M116.363,197.964c0,1.498-1.213,2.711-2.711,2.711c-1.505,0-2.718-1.213-2.718-2.711
		c0-1.505,1.213-2.724,2.718-2.724C115.15,195.24,116.363,196.458,116.363,197.964z"/>
	<path fill="#433A33" d="M116.363,214.902c0,1.486-1.213,2.704-2.711,2.704c-1.505,0-2.718-1.218-2.718-2.704
		c0-1.497,1.213-2.718,2.718-2.718C115.15,212.185,116.363,213.405,116.363,214.902z"/>
	<path fill="#BAB1AF" d="M90.208,171.132c11.202,0,20.319-9.118,20.319-20.315c0-11.214-9.117-20.332-20.319-20.332
		c-11.205,0-20.319,9.117-20.319,20.332C69.889,162.015,79.003,171.132,90.208,171.132z"/>
	<path fill="#62524D" d="M90.208,166.192c8.486,0,15.377-6.896,15.377-15.375c0-8.5-6.891-15.389-15.377-15.389
		c-8.49,0-15.386,6.889-15.386,15.389C74.822,159.297,81.718,166.192,90.208,166.192z M90.208,140.754
		c5.538,0,10.045,4.512,10.045,10.063c0,5.53-4.507,10.043-10.045,10.043c-5.544,0-10.057-4.513-10.057-10.043
		C80.151,145.266,84.664,140.754,90.208,140.754z"/>
	<path fill="#BAB1AF" d="M137.101,171.132c11.202,0,20.314-9.118,20.314-20.315c0-11.214-9.112-20.332-20.314-20.332
		s-20.324,9.117-20.324,20.332C116.776,162.015,125.898,171.132,137.101,171.132z"/>
	<path fill="#62524D" d="M137.101,166.192c8.489,0,15.375-6.896,15.375-15.375c0-8.5-6.886-15.389-15.375-15.389
		s-15.38,6.889-15.38,15.389C121.721,159.297,128.611,166.192,137.101,166.192z M137.101,140.754c5.541,0,10.06,4.512,10.06,10.063
		c0,5.53-4.519,10.043-10.06,10.043c-5.543,0-10.048-4.513-10.048-10.043C127.053,145.266,131.558,140.754,137.101,140.754z"/>
	<g>
		<rect x="39.66" y="127.464" fill="#E5BDB9" width="3.298" height="45.058"/>
		<path fill="#E5BDB9" d="M42.958,127.648v-0.283c0-0.471-0.732-0.837-1.64-0.842c-0.909,0-1.65,0.369-1.65,0.819v0.306H42.958z"/>
	</g>
	<g>
		<rect x="184.18" y="177.446" fill="#E5BDB9" width="3.289" height="45.049"/>
		<path fill="#E5BDB9" d="M184.18,222.313v0.289c0,0.462,0.74,0.832,1.642,0.843c0.907,0,1.642-0.376,1.642-0.831v-0.301H184.18z"/>
	</g>
	<circle fill="#62524D" cx="137.503" cy="150.561" r="11.787"/>
	<path fill="#433A33" d="M137.101,160.86c5.541,0,10.06-4.513,10.06-10.043c0-5.551-4.519-10.063-10.06-10.063
		c-5.543,0-10.048,4.512-10.048,10.063C127.053,156.347,131.558,160.86,137.101,160.86z"/>
	<path fill="#EEEEEF" d="M148.008,148.67c0,2.525-2.045,4.566-4.575,4.566c-2.519,0-4.574-2.042-4.574-4.566
		c0-2.529,2.056-4.579,4.574-4.579C145.963,144.092,148.008,146.142,148.008,148.67z"/>
	<path fill="#62524D" d="M102.233,150.606c0,6.435-5.211,11.65-11.64,11.65c-6.434,0-11.652-5.215-11.652-11.65
		c0-6.432,5.219-11.644,11.652-11.644C97.022,138.963,102.233,144.175,102.233,150.606z"/>
	<path fill="#433A33" d="M90.208,160.86c5.538,0,10.045-4.513,10.045-10.043c0-5.551-4.507-10.063-10.045-10.063
		c-5.544,0-10.057,4.512-10.057,10.063C80.151,156.347,84.664,160.86,90.208,160.86z"/>
	<path fill="#EEEEEF" d="M101.112,148.67c0,2.525-2.048,4.566-4.578,4.566c-2.517,0-4.566-2.042-4.566-4.566
		c0-2.529,2.05-4.579,4.566-4.579C99.064,144.092,101.112,146.142,101.112,148.67z"/>
	<path fill="#78A22F" d="M148.465,190.78c1.615-2.265,4.531-4.85,2.931-5.916c-0.664-0.448-1.738,0.963-2.227,2.521
		c-0.313,1.009-0.478,1.683-0.863,2.875c0.43-2.715,1.646-6.109-0.192-6.302c-0.798-0.091-1.093,1.668-0.805,3.275
		c0.183,0.979,0.338,1.637,0.542,2.768c-0.332-1.142-0.478-1.816-0.762-2.792c-0.447-1.57-1.487-3.013-2.163-2.587
		c-1.657,1.06,1.347,3.799,2.881,6.146c-0.05,0.029-0.082,0.065-0.082,0.113c0,0.104,0.178,0.196,0.397,0.196
		s0.396-0.085,0.396-0.196C148.519,190.845,148.494,190.812,148.465,190.78z"/>
	<g>
		<path fill="#F37047" d="M148.109,223.548c-3.656,0-6.567-27.924-4.873-31.154c1.831-3.487,6.972-4.117,9.56,0.295
			C155.386,197.093,150.695,223.551,148.109,223.548z"/>
		<path fill="#F05025" d="M147.021,193.267c-0.384-0.207-0.803-0.144-1.231-0.138c-0.512,0.012-1.015,0.021-1.523,0.062
			c-0.331,0.035-0.327,0.494,0,0.517c0.509,0.055,1.012,0.07,1.523,0.073c0.429,0.006,0.848,0.068,1.235-0.128
			C147.166,193.567,147.161,193.346,147.021,193.267z"/>
		<path fill="#F05025" d="M147.221,194.335c-0.495-0.162-1.051-0.094-1.573-0.086c-0.595,0.015-1.185,0.053-1.781,0.088
			c-0.218,0.021-0.218,0.332,0,0.344c0.6,0.043,1.187,0.08,1.781,0.09c0.527,0.014,1.07,0.088,1.576-0.072
			C147.399,194.635,147.399,194.393,147.221,194.335z"/>
		<path fill="#F05025" d="M152.543,196.378c-0.315-0.141-0.639-0.108-0.974-0.106c-0.409,0.01-0.808,0.026-1.222,0.059
			c-0.219,0.009-0.219,0.331,0,0.339c0.41,0.029,0.812,0.047,1.222,0.053c0.335,0.002,0.658,0.037,0.969-0.097
			C152.633,196.579,152.633,196.415,152.543,196.378z"/>
		<path fill="#F05025" d="M152.151,197.417c-0.272-0.125-0.572-0.073-0.866-0.073c-0.362-0.003-0.714,0.024-1.07,0.053
			c-0.207,0.008-0.207,0.309,0,0.323c0.356,0.023,0.708,0.043,1.07,0.047c0.294,0.002,0.589,0.064,0.861-0.08
			C152.244,197.638,152.244,197.475,152.151,197.417z"/>
		<path fill="#F05025" d="M146.543,201.676c-0.626-0.146-1.371-0.031-2.015-0.022c-0.174,0.002-0.174,0.268,0,0.271
			c0.644,0.01,1.389,0.121,2.015-0.031C146.646,201.873,146.646,201.711,146.543,201.676z"/>
		<path fill="#F05025" d="M147.003,202.649c-0.706-0.371-1.843-0.199-2.605-0.123c-0.248,0.022-0.265,0.406-0.004,0.4
			c0.456-0.018,0.907-0.018,1.358-0.006c0.402,0.026,0.815,0.125,1.211,0.032C147.097,202.919,147.13,202.712,147.003,202.649z"/>
		<path fill="#F05025" d="M151.031,205.793c-0.372-0.108-0.823-0.04-1.213-0.04c-0.175,0-0.175,0.265,0,0.268
			c0.39,0.009,0.841,0.068,1.213-0.037C151.136,205.958,151.132,205.82,151.031,205.793z"/>
		<path fill="#F05025" d="M151.573,206.669c-0.296-0.114-0.637-0.077-0.953-0.071c-0.358,0-0.716,0.006-1.068,0.021
			c-0.245,0.012-0.241,0.374,0.003,0.382c0.356,0.023,0.707,0.032,1.065,0.036c0.321-0.004,0.657,0.041,0.959-0.074
			C151.714,206.903,151.714,206.728,151.573,206.669z"/>
		<path fill="#F05025" d="M149.981,211.876c-0.805-0.295-1.694-0.371-2.542-0.371c-0.206,0.006-0.262,0.317-0.052,0.371
			c0.824,0.207,1.708,0.341,2.558,0.254C150.088,212.118,150.121,211.925,149.981,211.876z"/>
		<path fill="#F05025" d="M150.438,212.835c-0.382-0.228-0.81-0.219-1.247-0.229c-0.476-0.004-0.947,0.011-1.411,0.106
			c-0.238,0.051-0.166,0.392,0.054,0.404c0.453,0.028,0.905,0.02,1.357,0.04c0.404,0.016,0.81,0.099,1.206-0.012
			C150.531,213.104,150.557,212.915,150.438,212.835z"/>
		<path fill="#F05025" d="M147.78,217.253c-0.278-0.13-0.563-0.087-0.865-0.084c-0.355,0-0.714,0.012-1.071,0.031
			c-0.235,0.033-0.231,0.358,0,0.377c0.357,0.034,0.716,0.041,1.071,0.044c0.302,0.003,0.587,0.041,0.865-0.089
			C147.883,217.487,147.888,217.296,147.78,217.253z"/>
		<path fill="#F05025" d="M148.192,218.274c-0.284-0.154-0.615-0.129-0.936-0.152c-0.381-0.027-0.761-0.036-1.142-0.033
			c-0.23,0-0.295,0.371-0.06,0.413c0.354,0.046,0.698,0.087,1.051,0.121c0.342,0.026,0.714,0.113,1.038-0.007
			C148.287,218.56,148.342,218.355,148.192,218.274z"/>
	</g>
	<rect x="138.266" y="201.83" fill="#E5BDB9" width="15.787" height="21.615"/>
	<rect x="138.266" y="199.813" fill="#433A33" width="19.761" height="2.017"/>
</g>
</svg>
