<?xml version="1.0" encoding="utf-8"?>
<!-- Generator: Adobe Illustrator 16.0.4, SVG Export Plug-In . SVG Version: 6.00 Build 0)  -->
<!DOCTYPE svg PUBLIC "-//W3C//DTD SVG 1.1//EN" "http://www.w3.org/Graphics/SVG/1.1/DTD/svg11.dtd">
<svg version="1.1" id="Layer_1" xmlns="http://www.w3.org/2000/svg" xmlns:xlink="http://www.w3.org/1999/xlink" x="0px" y="0px"
	 width="160px" height="151px" viewBox="0 0 160 151" enable-background="new 0 0 160 151" xml:space="preserve">
<g>
	<path fill="#433A33" d="M34.045,121.741h-1.433l-4.383-16.168l-4.381,16.168h-1.433l-4.643-18.568h1.486l3.915,16.142l4.327-16.142
		h1.46l4.328,16.142l3.914-16.142h1.487L34.045,121.741z"/>
	<path fill="#433A33" d="M49.355,121.741v-18.568h11.268v1.25h-9.858v7.33h8.396v1.253h-8.396v7.483h9.858v1.252H49.355z"/>
	<path fill="#433A33" d="M83.169,120.045c-1.096,1.096-2.712,1.696-4.643,1.696h-6.233v-18.568h6.233
		c1.931,0,3.547,0.599,4.643,1.694c1.878,1.879,1.801,4.825,1.801,7.328C84.97,114.699,85.047,118.17,83.169,120.045z
		 M82.178,105.858c-1.068-1.094-2.502-1.436-3.989-1.436h-4.485v16.066h4.485c1.487,0,2.921-0.341,3.989-1.435
		c1.486-1.513,1.383-4.798,1.383-6.859C83.561,110.136,83.664,107.372,82.178,105.858z"/>
	<path fill="#433A33" d="M96.867,121.741v-18.568h1.407v18.568H96.867z"/>
	<path fill="#433A33" d="M123.604,121.741L112.887,105.6v16.142h-1.409v-18.568h1.409l10.717,16.091v-16.091h1.409v18.568H123.604z"
		/>
	<path fill="#433A33" d="M138.218,121.741v-18.568h1.407v18.568H138.218z"/>
	<g>
		<path fill="#4A3F37" d="M40.165,133.832h-0.336l-0.887-2.615l-0.884,2.615h-0.338l-1.002-3.138h0.365l0.801,2.746l0.897-2.746
			h0.326l0.897,2.746l0.8-2.746h0.365L40.165,133.832z"/>
		<path fill="#4A3F37" d="M44.739,132.335c0,0.794,0.357,1.235,1.021,1.235c0.371,0,0.599-0.108,0.866-0.374l0.247,0.194
			c-0.318,0.319-0.612,0.479-1.132,0.479c-0.867,0-1.333-0.559-1.333-1.604c0-1.011,0.467-1.609,1.256-1.609
			c0.779,0,1.255,0.571,1.255,1.529v0.149H44.739z M46.476,131.477c-0.137-0.328-0.455-0.527-0.812-0.527
			c-0.359,0-0.679,0.199-0.815,0.527c-0.078,0.195-0.097,0.292-0.109,0.591h1.847C46.573,131.769,46.554,131.672,46.476,131.477z"/>
		<path fill="#4A3F37" d="M52.644,133.832v-0.404c-0.273,0.365-0.579,0.442-0.931,0.442c-0.326,0-0.604-0.109-0.769-0.271
			c-0.318-0.321-0.403-0.842-0.403-1.334c0-0.497,0.085-1.017,0.403-1.337c0.164-0.162,0.443-0.272,0.769-0.272
			c0.352,0,0.658,0.076,0.931,0.443v-1.901h0.332v4.634H52.644z M51.76,130.949c-0.769,0-0.885,0.665-0.885,1.316
			c0,0.648,0.117,1.312,0.885,1.312c0.766,0,0.884-0.664,0.884-1.312C52.644,131.614,52.526,130.949,51.76,130.949z"/>
		<path fill="#4A3F37" d="M58.89,133.832v-0.404c-0.272,0.365-0.579,0.442-0.93,0.442c-0.326,0-0.605-0.109-0.768-0.271
			c-0.32-0.321-0.405-0.842-0.405-1.334c0-0.497,0.084-1.017,0.405-1.337c0.163-0.162,0.442-0.272,0.768-0.272
			c0.351,0,0.658,0.076,0.93,0.443v-1.901h0.333v4.634H58.89z M58.006,130.949c-0.769,0-0.886,0.665-0.886,1.316
			c0,0.648,0.118,1.312,0.886,1.312s0.884-0.664,0.884-1.312C58.89,131.614,58.774,130.949,58.006,130.949z"/>
		<path fill="#4A3F37" d="M63.178,129.608v-0.41h0.41v0.41H63.178z M63.218,133.832v-3.138h0.332v3.138H63.218z"/>
		<path fill="#4A3F37" d="M69.627,133.832v-1.946c0-0.604-0.307-0.937-0.864-0.937c-0.561,0-0.886,0.344-0.886,0.937v1.946h-0.332
			v-3.138h0.332v0.371c0.234-0.272,0.546-0.409,0.924-0.409c0.352,0,0.633,0.104,0.833,0.3c0.209,0.202,0.325,0.5,0.325,0.871v2.005
			H69.627z"/>
		<path fill="#4A3F37" d="M74.755,135.369c-0.47,0-0.702-0.126-1.034-0.418l0.219-0.221c0.249,0.221,0.418,0.344,0.815,0.344
			c0.657,0,0.95-0.469,0.95-1.085v-0.562c-0.273,0.365-0.578,0.442-0.932,0.442c-0.326,0-0.605-0.109-0.768-0.271
			c-0.318-0.321-0.402-0.842-0.402-1.334c0-0.497,0.084-1.017,0.402-1.337c0.162-0.162,0.441-0.272,0.768-0.272
			c0.354,0,0.658,0.076,0.932,0.443v-0.405h0.332v3.313C76.037,134.796,75.568,135.369,74.755,135.369z M74.819,130.949
			c-0.767,0-0.884,0.665-0.884,1.316c0,0.648,0.117,1.312,0.884,1.312c0.768,0,0.886-0.664,0.886-1.312
			C75.705,131.614,75.587,130.949,74.819,130.949z"/>
		<path fill="#4A3F37" d="M85.382,133.832h-0.34l-0.886-2.615l-0.884,2.615h-0.341l-1-3.138h0.364l0.801,2.746l0.899-2.746h0.324
			l0.897,2.746l0.8-2.746h0.363L85.382,133.832z"/>
		<path fill="#4A3F37" d="M91.756,133.525c-0.223,0.221-0.521,0.345-0.871,0.345c-0.354,0-0.652-0.124-0.874-0.345
			c-0.331-0.329-0.389-0.813-0.389-1.26c0-0.451,0.058-0.934,0.389-1.264c0.222-0.222,0.521-0.346,0.874-0.346
			c0.35,0,0.648,0.124,0.871,0.346c0.333,0.33,0.39,0.812,0.39,1.264C92.146,132.712,92.089,133.196,91.756,133.525z
			 M91.533,131.217c-0.17-0.17-0.396-0.268-0.648-0.268c-0.255,0-0.484,0.098-0.652,0.268c-0.262,0.26-0.278,0.682-0.278,1.049
			c0,0.363,0.017,0.785,0.278,1.046c0.168,0.169,0.397,0.267,0.652,0.267c0.252,0,0.479-0.098,0.648-0.267
			c0.26-0.261,0.28-0.683,0.28-1.046C91.813,131.898,91.793,131.477,91.533,131.217z"/>
		<path fill="#4A3F37" d="M98.042,133.832v-1.946c0-0.604-0.308-0.937-0.866-0.937s-0.886,0.344-0.886,0.937v1.946h-0.333v-3.138
			h0.333v0.371c0.235-0.272,0.547-0.409,0.925-0.409c0.351,0,0.631,0.104,0.833,0.3c0.207,0.202,0.324,0.5,0.324,0.871v2.005H98.042
			z"/>
		<path fill="#4A3F37" d="M104.249,133.832v-0.404c-0.273,0.365-0.579,0.442-0.931,0.442c-0.325,0-0.605-0.109-0.769-0.271
			c-0.319-0.321-0.403-0.842-0.403-1.334c0-0.497,0.084-1.017,0.403-1.337c0.163-0.162,0.443-0.272,0.769-0.272
			c0.352,0,0.657,0.076,0.931,0.443v-1.901h0.331v4.634H104.249z M103.362,130.949c-0.767,0-0.885,0.665-0.885,1.316
			c0,0.648,0.118,1.312,0.885,1.312c0.769,0,0.887-0.664,0.887-1.312C104.249,131.614,104.131,130.949,103.362,130.949z"/>
		<path fill="#4A3F37" d="M108.725,132.335c0,0.794,0.357,1.235,1.022,1.235c0.369,0,0.599-0.108,0.864-0.374l0.248,0.194
			c-0.32,0.319-0.611,0.479-1.133,0.479c-0.865,0-1.332-0.559-1.332-1.604c0-1.011,0.467-1.609,1.254-1.609
			c0.783,0,1.257,0.571,1.257,1.529v0.149H108.725z M110.463,131.477c-0.138-0.328-0.455-0.527-0.814-0.527
			c-0.357,0-0.675,0.199-0.813,0.527c-0.076,0.195-0.099,0.292-0.11,0.591h1.849C110.561,131.769,110.539,131.672,110.463,131.477z"
			/>
		<path fill="#4A3F37" d="M116.476,131.197c-0.19-0.189-0.332-0.248-0.593-0.248c-0.539,0-0.839,0.443-0.839,0.949v1.934h-0.331
			v-3.138h0.331v0.416c0.182-0.292,0.546-0.454,0.917-0.454c0.301,0,0.531,0.076,0.755,0.3L116.476,131.197z"/>
		<path fill="#4A3F37" d="M121.003,133.87c-0.546,0-0.95-0.142-1.27-0.448l0.229-0.226c0.247,0.259,0.581,0.382,1.027,0.382
			c0.611,0,0.943-0.215,0.943-0.639c0-0.323-0.188-0.486-0.599-0.526l-0.519-0.045c-0.632-0.052-0.945-0.332-0.945-0.819
			c0-0.541,0.442-0.893,1.125-0.893c0.431,0,0.828,0.124,1.102,0.333l-0.222,0.222c-0.24-0.178-0.534-0.27-0.88-0.27
			c-0.513,0-0.799,0.223-0.799,0.607c0,0.323,0.196,0.487,0.637,0.525l0.508,0.046c0.521,0.045,0.92,0.208,0.92,0.819
			C122.262,133.514,121.772,133.87,121.003,133.87z"/>
	</g>
	<ellipse opacity="0.41" fill="#91C2D3" cx="78.697" cy="90.072" rx="12.121" ry="3.291"/>
	<circle fill="#91C2D3" cx="106.955" cy="78.858" r="2.165"/>
	<path fill="#91C2D3" d="M109.729,60.869c0,0.963-0.783,1.752-1.743,1.752l-2.043,0.003c-0.962,0.001-1.746-0.78-1.747-1.745
		l-0.011-7.625c-0.005-0.966,0.775-1.75,1.742-1.75l2.039-0.003c0.963-0.001,1.749,0.777,1.749,1.744L109.729,60.869z"/>
	<path fill="#91C2D3" d="M53.147,53.23c0-0.968-0.78-1.75-1.748-1.751l-2.037-0.005c-0.963-0.002-1.746,0.779-1.748,1.744
		l-0.013,7.628c-0.003,0.963,0.779,1.748,1.745,1.749l2.035,0.004c0.963,0.003,1.749-0.78,1.749-1.746L53.147,53.23z"/>
	<g>
		<path fill="#DC5E7D" d="M48.978,31.829c-0.876,0-1.584,0.712-1.584,1.583c0,0.54,0.253,1.052,0.767,1.561
			c0.249,0.244,2.088,2.088,2.213,2.213c0.124-0.125,1.964-1.969,2.212-2.213c0.516-0.509,0.769-1.021,0.769-1.561
			c0-0.871-0.712-1.583-1.584-1.583c-0.58,0-1.107,0.314-1.389,0.824l-0.008,0.016l-0.007-0.016
			C50.085,32.144,49.559,31.829,48.978,31.829z"/>
	</g>
	<g>
		<path fill="#433A33" d="M67.42,28.125v-7.097h-0.58h-0.576v7.117c0.203-0.063,0.409-0.1,0.623-0.1
			C67.068,28.045,67.246,28.075,67.42,28.125z"/>
		<g>
			<circle fill="#433A33" cx="66.841" cy="19.34" r="1.966"/>
		</g>
	</g>
	<g>
		<g>
			<path fill="#433A33" d="M91.135,28.125v-7.097h-0.582h-0.577v7.117c0.201-0.063,0.413-0.1,0.622-0.1
				C90.782,28.045,90.96,28.075,91.135,28.125z"/>
		</g>
		<g>
			<circle fill="#433A33" cx="90.555" cy="19.34" r="1.967"/>
		</g>
	</g>
	<polygon fill="#DC5E7D" points="75.709,22.757 74.299,18.429 73.661,19.958 70.263,19.788 70.263,19.788 73.324,19.619 
		74.354,17.142 75.756,21.458 76.947,18.532 77.56,19.583 78.662,16.957 79.959,20.098 81.277,16.299 82.534,19.762 83.275,18.033 
		84.1,19.627 87.135,19.794 87.135,19.794 83.781,19.967 83.315,19.064 82.498,20.971 81.288,17.637 80.002,21.352 78.657,18.108 
		77.629,20.562 77.023,19.522 	"/>
	<path fill="#91C2D3" d="M102.872,47.151C102.708,34.522,91.948,24.33,78.697,24.33S54.69,34.522,54.522,47.151h-0.004v12.612h0.004
		c0.091,12.688,10.877,22.947,24.175,22.947c13.297,0,24.081-10.26,24.178-22.947l0,0V47.151H102.872z"/>
	<path fill="#EEEEEF" d="M100.916,48.202c0,6.089-4.946,11.027-11.047,11.027H67.525c-6.102,0-11.046-4.938-11.046-11.027l0,0
		c0-6.083,4.945-11.022,11.046-11.022h22.344C95.97,37.18,100.916,42.118,100.916,48.202L100.916,48.202z"/>
	<g>
		<path fill="#EEEEEF" d="M75.447,31.353c0,0.577-0.469,1.043-1.043,1.043c-0.575,0-1.039-0.466-1.039-1.043
			c0-0.573,0.464-1.041,1.039-1.041C74.979,30.312,75.447,30.78,75.447,31.353z"/>
		<path fill="#EEEEEF" d="M79.742,31.353c0,0.577-0.471,1.043-1.045,1.043c-0.578,0-1.043-0.466-1.043-1.043
			c0-0.573,0.465-1.041,1.043-1.041C79.271,30.312,79.742,30.78,79.742,31.353z"/>
		<path fill="#EEEEEF" d="M84.031,31.353c0,0.577-0.467,1.043-1.047,1.043c-0.572,0-1.037-0.466-1.037-1.043
			c0-0.573,0.465-1.041,1.037-1.041C83.564,30.312,84.031,30.78,84.031,31.353z"/>
	</g>
	<path fill="#DC5E7D" d="M84.745,56.246c0,0-1.913,0.266-3.043,0.66c-0.809,0.283-1.812,0.912-2.241,1.193
		c-0.162-0.127-0.365-0.207-0.59-0.207h-0.343c-0.226,0-0.429,0.08-0.595,0.207c-0.428-0.281-1.432-0.907-2.242-1.191
		c-1.126-0.393-3.043-0.653-3.043-0.653s-0.479,1.386-0.281,3.339c0.16,1.533,0.898,2.643,0.898,2.643s1.633-0.625,2.589-1.076
		c0.701-0.336,0.985-0.547,1.388-1.023c0.115-0.134,0.406-0.387,0.629-0.569c0.17,0.161,0.398,0.263,0.658,0.263h0.342
		c0.255,0,0.486-0.102,0.658-0.266c0.22,0.186,0.512,0.437,0.627,0.57c0.409,0.479,0.687,0.688,1.392,1.018
		c0.957,0.456,2.588,1.078,2.588,1.078s0.74-1.109,0.894-2.646C85.226,57.631,84.745,56.246,84.745,56.246z"/>
	<circle fill="#433A33" cx="78.697" cy="66.03" r="1.063"/>
	<circle fill="#433A33" cx="78.697" cy="72.661" r="1.063"/>
	<path fill="#EEEEEF" d="M88.509,66.928c0,0,0.035-0.578,0.87-1.174c0,0,2.635-2.025,3.184-2.874c0,0,0.726,0.616,0.917,2.548
		c0,0,1.568-0.68,2.024-1.172c0,0,0.537,0.625,0.325,2.895l-6.966,0.083L88.509,66.928z"/>
	<rect x="88.334" y="66.754" fill="#433A33" width="7.737" height="0.79"/>
	<path fill="#B9B0AF" d="M69.52,55.525c4.385,0,7.955-3.57,7.955-7.954c0-4.391-3.57-7.96-7.955-7.96
		c-4.388,0-7.956,3.57-7.956,7.96C61.563,51.956,65.132,55.525,69.52,55.525z"/>
	<path fill="#63534E" d="M69.518,53.592c3.324,0,6.021-2.7,6.021-6.02c0-3.328-2.697-6.025-6.021-6.025
		c-3.323,0-6.022,2.697-6.022,6.025C63.495,50.892,66.194,53.592,69.518,53.592z M69.518,43.632c2.169,0,3.935,1.766,3.935,3.94
		c0,2.165-1.766,3.932-3.935,3.932c-2.17,0-3.936-1.767-3.936-3.932C65.582,45.398,67.348,43.632,69.518,43.632z"/>
	<path fill="#B9B0AF" d="M87.878,55.525c4.386,0,7.953-3.57,7.953-7.954c0-4.391-3.567-7.96-7.953-7.96s-7.958,3.57-7.958,7.96
		C79.92,51.956,83.492,55.525,87.878,55.525z"/>
	<path fill="#63534E" d="M87.878,53.592c3.324,0,6.02-2.7,6.02-6.02c0-3.328-2.695-6.025-6.02-6.025
		c-3.323,0-6.021,2.697-6.021,6.025C81.856,50.892,84.555,53.592,87.878,53.592z M87.878,43.632c2.169,0,3.938,1.766,3.938,3.94
		c0,2.165-1.77,3.932-3.938,3.932c-2.17,0-3.934-1.767-3.934-3.932C83.944,45.398,85.708,43.632,87.878,43.632z"/>
	<g>
		<rect x="49.729" y="38.429" fill="#91C2D3" width="1.291" height="17.641"/>
		<path fill="#91C2D3" d="M51.019,38.5V38.39c0-0.184-0.286-0.328-0.642-0.33c-0.356,0-0.646,0.144-0.646,0.321v0.12H51.019z"/>
	</g>
	<g>
		<rect x="106.31" y="57.997" fill="#91C2D3" width="1.288" height="17.637"/>
		<path fill="#91C2D3" d="M106.31,75.562v0.115c0,0.18,0.29,0.324,0.644,0.328c0.354,0.002,0.643-0.146,0.643-0.325v-0.118H106.31z"
			/>
	</g>
	<circle fill="#63534E" cx="88.036" cy="47.471" r="4.615"/>
	<path fill="#433A33" d="M87.878,51.503c2.169,0,3.938-1.767,3.938-3.932c0-2.174-1.77-3.94-3.938-3.94
		c-2.17,0-3.934,1.766-3.934,3.94C83.944,49.737,85.708,51.503,87.878,51.503z"/>
	<path fill="#EEEEEF" d="M92.148,46.731c0,0.989-0.801,1.788-1.791,1.788c-0.986,0-1.791-0.799-1.791-1.788
		c0-0.99,0.805-1.792,1.791-1.792C91.348,44.938,92.148,45.741,92.148,46.731z"/>
	<circle fill="#63534E" cx="69.667" cy="47.489" r="4.56"/>
	<path fill="#433A33" d="M69.518,51.503c2.169,0,3.935-1.767,3.935-3.932c0-2.174-1.766-3.94-3.935-3.94
		c-2.17,0-3.936,1.766-3.936,3.94C65.582,49.737,67.348,51.503,69.518,51.503z"/>
	<circle fill="#EEEEEF" cx="71.997" cy="46.731" r="1.79"/>
	<text transform="matrix(1 0 0 1 141.0098 105.5781)" fill="#433A33" font-family="'HelveticaNeueLTStd-Roman'" font-size="3.2808">®</text>
</g>
</svg>
