<?xml version="1.0" encoding="utf-8"?>
<!-- Generator: Adobe Illustrator 16.0.4, SVG Export Plug-In . SVG Version: 6.00 Build 0)  -->
<!DOCTYPE svg PUBLIC "-//W3C//DTD SVG 1.1//EN" "http://www.w3.org/Graphics/SVG/1.1/DTD/svg11.dtd">
<svg version="1.1" id="Layer_1" xmlns="http://www.w3.org/2000/svg" xmlns:xlink="http://www.w3.org/1999/xlink" x="0px" y="0px"
	 width="151.807px" height="159.037px" viewBox="0 0 151.807 159.037" enable-background="new 0 0 151.807 159.037"
	 xml:space="preserve">
<g>
	<path fill="#433A33" d="M29.997,129.079h-1.433l-4.383-16.168l-4.381,16.168h-1.433l-4.643-18.568h1.486l3.915,16.142l4.327-16.142
		h1.46l4.328,16.142l3.914-16.142h1.487L29.997,129.079z"/>
	<path fill="#433A33" d="M45.307,129.079V110.51h11.268v1.25h-9.858v7.33h8.396v1.253h-8.396v7.483h9.858v1.252H45.307z"/>
	<path fill="#433A33" d="M79.121,127.382c-1.096,1.096-2.711,1.696-4.643,1.696h-6.233V110.51h6.233
		c1.931,0,3.547,0.599,4.643,1.694c1.878,1.879,1.801,4.825,1.801,7.328C80.921,122.037,80.999,125.507,79.121,127.382z
		 M78.13,113.196c-1.069-1.094-2.502-1.436-3.99-1.436h-4.485v16.066h4.485c1.488,0,2.92-0.341,3.99-1.435
		c1.486-1.513,1.382-4.798,1.382-6.859C79.512,117.473,79.616,114.709,78.13,113.196z"/>
	<path fill="#433A33" d="M92.819,129.079V110.51h1.407v18.568H92.819z"/>
	<path fill="#433A33" d="M119.555,129.079l-10.717-16.142v16.142h-1.409V110.51h1.409l10.717,16.091V110.51h1.409v18.568H119.555z"
		/>
	<path fill="#433A33" d="M134.169,129.079V110.51h1.407v18.568H134.169z"/>
	<g>
		<path fill="#4A3F37" d="M36.116,141.169H35.78l-0.887-2.615l-0.884,2.615H33.67l-1.002-3.138h0.365l0.801,2.746l0.897-2.746h0.326
			l0.897,2.746l0.8-2.746h0.365L36.116,141.169z"/>
		<path fill="#4A3F37" d="M40.69,139.672c0,0.794,0.357,1.235,1.021,1.235c0.371,0,0.599-0.108,0.866-0.374l0.247,0.194
			c-0.318,0.319-0.612,0.479-1.132,0.479c-0.867,0-1.333-0.559-1.333-1.604c0-1.011,0.467-1.609,1.256-1.609
			c0.779,0,1.255,0.571,1.255,1.529v0.149H40.69z M42.427,138.814c-0.137-0.328-0.455-0.527-0.812-0.527
			c-0.359,0-0.679,0.199-0.815,0.527c-0.078,0.195-0.097,0.292-0.109,0.591h1.847C42.525,139.106,42.506,139.009,42.427,138.814z"/>
		<path fill="#4A3F37" d="M48.596,141.169v-0.404c-0.273,0.365-0.579,0.442-0.931,0.442c-0.326,0-0.604-0.109-0.769-0.271
			c-0.318-0.321-0.403-0.842-0.403-1.334c0-0.497,0.085-1.017,0.403-1.337c0.164-0.162,0.443-0.272,0.769-0.272
			c0.352,0,0.658,0.076,0.931,0.443v-1.901h0.332v4.634H48.596z M47.711,138.287c-0.769,0-0.885,0.665-0.885,1.316
			c0,0.648,0.117,1.312,0.885,1.312c0.766,0,0.884-0.664,0.884-1.312C48.596,138.952,48.478,138.287,47.711,138.287z"/>
		<path fill="#4A3F37" d="M54.842,141.169v-0.404c-0.272,0.365-0.579,0.442-0.93,0.442c-0.326,0-0.605-0.109-0.768-0.271
			c-0.32-0.321-0.405-0.842-0.405-1.334c0-0.497,0.084-1.017,0.405-1.337c0.163-0.162,0.442-0.272,0.768-0.272
			c0.351,0,0.658,0.076,0.93,0.443v-1.901h0.333v4.634H54.842z M53.958,138.287c-0.769,0-0.886,0.665-0.886,1.316
			c0,0.648,0.118,1.312,0.886,1.312s0.884-0.664,0.884-1.312C54.842,138.952,54.726,138.287,53.958,138.287z"/>
		<path fill="#4A3F37" d="M59.13,136.946v-0.41h0.41v0.41H59.13z M59.169,141.169v-3.138h0.332v3.138H59.169z"/>
		<path fill="#4A3F37" d="M65.579,141.169v-1.946c0-0.604-0.307-0.937-0.865-0.937c-0.561,0-0.886,0.344-0.886,0.937v1.946h-0.332
			v-3.138h0.332v0.371c0.234-0.272,0.546-0.409,0.924-0.409c0.351,0,0.632,0.104,0.833,0.3c0.209,0.202,0.325,0.5,0.325,0.871v2.005
			H65.579z"/>
		<path fill="#4A3F37" d="M70.707,142.707c-0.469,0-0.703-0.126-1.034-0.418l0.219-0.221c0.249,0.221,0.417,0.344,0.815,0.344
			c0.658,0,0.95-0.469,0.95-1.085v-0.562c-0.273,0.365-0.578,0.442-0.931,0.442c-0.326,0-0.605-0.109-0.768-0.271
			c-0.318-0.321-0.402-0.842-0.402-1.334c0-0.497,0.084-1.017,0.402-1.337c0.163-0.162,0.442-0.272,0.768-0.272
			c0.353,0,0.658,0.076,0.931,0.443v-0.405h0.332v3.313C71.988,142.133,71.52,142.707,70.707,142.707z M70.771,138.287
			c-0.767,0-0.884,0.665-0.884,1.316c0,0.648,0.117,1.312,0.884,1.312c0.768,0,0.885-0.664,0.885-1.312
			C71.656,138.952,71.539,138.287,70.771,138.287z"/>
		<path fill="#4A3F37" d="M81.333,141.169h-0.34l-0.886-2.615l-0.884,2.615h-0.34l-1.001-3.138h0.365l0.801,2.746l0.899-2.746h0.324
			l0.897,2.746l0.8-2.746h0.363L81.333,141.169z"/>
		<path fill="#4A3F37" d="M87.708,140.863c-0.223,0.221-0.521,0.345-0.871,0.345c-0.354,0-0.652-0.124-0.874-0.345
			c-0.331-0.329-0.389-0.813-0.389-1.26c0-0.451,0.058-0.934,0.389-1.264c0.222-0.222,0.521-0.346,0.874-0.346
			c0.35,0,0.648,0.124,0.871,0.346c0.333,0.33,0.39,0.812,0.39,1.264C88.097,140.049,88.041,140.534,87.708,140.863z
			 M87.485,138.554c-0.17-0.17-0.396-0.268-0.648-0.268c-0.255,0-0.484,0.098-0.652,0.268c-0.262,0.26-0.278,0.682-0.278,1.049
			c0,0.363,0.017,0.785,0.278,1.046c0.168,0.169,0.397,0.267,0.652,0.267c0.252,0,0.479-0.098,0.648-0.267
			c0.26-0.261,0.28-0.683,0.28-1.046C87.765,139.236,87.745,138.814,87.485,138.554z"/>
		<path fill="#4A3F37" d="M93.994,141.169v-1.946c0-0.604-0.308-0.937-0.866-0.937s-0.886,0.344-0.886,0.937v1.946h-0.333v-3.138
			h0.333v0.371c0.235-0.272,0.547-0.409,0.925-0.409c0.351,0,0.631,0.104,0.833,0.3c0.207,0.202,0.324,0.5,0.324,0.871v2.005H93.994
			z"/>
		<path fill="#4A3F37" d="M100.201,141.169v-0.404c-0.273,0.365-0.579,0.442-0.931,0.442c-0.325,0-0.605-0.109-0.769-0.271
			c-0.319-0.321-0.403-0.842-0.403-1.334c0-0.497,0.084-1.017,0.403-1.337c0.163-0.162,0.443-0.272,0.769-0.272
			c0.352,0,0.657,0.076,0.931,0.443v-1.901h0.331v4.634H100.201z M99.314,138.287c-0.767,0-0.885,0.665-0.885,1.316
			c0,0.648,0.118,1.312,0.885,1.312c0.769,0,0.887-0.664,0.887-1.312C100.201,138.952,100.083,138.287,99.314,138.287z"/>
		<path fill="#4A3F37" d="M104.676,139.672c0,0.794,0.357,1.235,1.022,1.235c0.369,0,0.599-0.108,0.864-0.374l0.248,0.194
			c-0.32,0.319-0.611,0.479-1.133,0.479c-0.865,0-1.332-0.559-1.332-1.604c0-1.011,0.467-1.609,1.254-1.609
			c0.783,0,1.257,0.571,1.257,1.529v0.149H104.676z M106.415,138.814c-0.138-0.328-0.455-0.527-0.814-0.527
			c-0.357,0-0.675,0.199-0.813,0.527c-0.076,0.195-0.099,0.292-0.11,0.591h1.849C106.512,139.106,106.491,139.009,106.415,138.814z"
			/>
		<path fill="#4A3F37" d="M112.427,138.535c-0.19-0.189-0.332-0.248-0.593-0.248c-0.539,0-0.839,0.443-0.839,0.949v1.934h-0.331
			v-3.138h0.331v0.416c0.182-0.292,0.546-0.454,0.917-0.454c0.301,0,0.531,0.076,0.755,0.3L112.427,138.535z"/>
		<path fill="#4A3F37" d="M116.955,141.208c-0.546,0-0.95-0.142-1.27-0.448l0.229-0.226c0.247,0.259,0.581,0.382,1.027,0.382
			c0.611,0,0.943-0.215,0.943-0.639c0-0.323-0.188-0.486-0.599-0.526l-0.519-0.045c-0.632-0.052-0.945-0.332-0.945-0.819
			c0-0.541,0.442-0.893,1.125-0.893c0.431,0,0.828,0.124,1.102,0.333l-0.222,0.222c-0.24-0.178-0.534-0.27-0.88-0.27
			c-0.513,0-0.799,0.223-0.799,0.607c0,0.323,0.196,0.487,0.637,0.525l0.508,0.046c0.521,0.045,0.92,0.208,0.92,0.819
			C118.213,140.851,117.724,141.208,116.955,141.208z"/>
	</g>
	<ellipse opacity="0.41" fill="#91C2D3" cx="74.649" cy="97.41" rx="12.121" ry="3.29"/>
	<circle fill="#91C2D3" cx="102.906" cy="86.196" r="2.165"/>
	<path fill="#91C2D3" d="M105.68,68.206c0,0.964-0.783,1.752-1.743,1.752l-2.043,0.003c-0.962,0.001-1.746-0.78-1.747-1.746
		l-0.011-7.625c-0.005-0.966,0.775-1.75,1.742-1.75l2.039-0.003c0.963-0.001,1.749,0.777,1.749,1.743L105.68,68.206z"/>
	<path fill="#91C2D3" d="M49.099,60.568c0-0.968-0.78-1.75-1.748-1.752l-2.037-0.005c-0.963-0.002-1.746,0.779-1.748,1.744
		l-0.013,7.628c-0.003,0.962,0.779,1.748,1.745,1.749l2.035,0.004c0.963,0.002,1.749-0.78,1.749-1.746L49.099,60.568z"/>
	<g>
		<path fill="#DC5E7D" d="M44.929,39.167c-0.876,0-1.584,0.712-1.584,1.583c0,0.54,0.253,1.052,0.767,1.561
			c0.249,0.244,2.088,2.088,2.213,2.213c0.124-0.125,1.964-1.969,2.212-2.213c0.516-0.509,0.769-1.021,0.769-1.561
			c0-0.871-0.712-1.583-1.584-1.583c-0.58,0-1.107,0.314-1.389,0.824l-0.008,0.016l-0.007-0.016
			C46.037,39.481,45.51,39.167,44.929,39.167z"/>
	</g>
	<g>
		<path fill="#433A33" d="M63.372,35.462v-7.097h-0.58h-0.577v7.117c0.204-0.063,0.41-0.1,0.624-0.1
			C63.021,35.383,63.197,35.413,63.372,35.462z"/>
		<g>
			<circle fill="#433A33" cx="62.793" cy="26.677" r="1.966"/>
		</g>
	</g>
	<g>
		<g>
			<path fill="#433A33" d="M87.086,35.462v-7.097h-0.582h-0.577v7.117c0.201-0.063,0.413-0.1,0.622-0.1
				C86.734,35.383,86.912,35.413,87.086,35.462z"/>
		</g>
		<g>
			<circle fill="#433A33" cx="86.507" cy="26.677" r="1.967"/>
		</g>
	</g>
	<polygon fill="#DC5E7D" points="71.66,30.094 70.251,25.767 69.613,27.296 66.214,27.125 66.214,27.125 69.276,26.956 
		70.306,24.479 71.708,28.795 72.899,25.869 73.511,26.921 74.614,24.294 75.911,27.435 77.229,23.637 78.486,27.099 79.227,25.37 
		80.051,26.964 83.086,27.131 83.086,27.131 79.733,27.304 79.267,26.402 78.45,28.309 77.24,24.974 75.953,28.689 74.609,25.445 
		73.58,27.9 72.976,26.86 	"/>
	<path fill="#91C2D3" d="M98.824,54.489C98.66,41.859,87.9,31.667,74.648,31.667c-13.25,0-24.007,10.192-24.174,22.822H50.47v12.612
		h0.004c0.091,12.688,10.877,22.948,24.174,22.948s24.082-10.26,24.178-22.948l0,0V54.489H98.824z"/>
	<path fill="#EEEEEF" d="M96.868,55.539c0,6.089-4.946,11.026-11.047,11.026H63.477c-6.102,0-11.046-4.938-11.046-11.026l0,0
		c0-6.083,4.945-11.022,11.046-11.022h22.344C91.921,44.517,96.868,49.456,96.868,55.539L96.868,55.539z"/>
	<g>
		<path fill="#EEEEEF" d="M71.399,38.69c0,0.577-0.468,1.043-1.043,1.043c-0.575,0-1.039-0.466-1.039-1.043
			c0-0.573,0.464-1.041,1.039-1.041C70.931,37.649,71.399,38.117,71.399,38.69z"/>
		<path fill="#EEEEEF" d="M75.694,38.69c0,0.577-0.47,1.043-1.045,1.043c-0.577,0-1.042-0.466-1.042-1.043
			c0-0.573,0.465-1.041,1.042-1.041C75.224,37.649,75.694,38.117,75.694,38.69z"/>
		<path fill="#EEEEEF" d="M79.983,38.69c0,0.577-0.467,1.043-1.046,1.043c-0.573,0-1.038-0.466-1.038-1.043
			c0-0.573,0.465-1.041,1.038-1.041C79.516,37.649,79.983,38.117,79.983,38.69z"/>
	</g>
	<path fill="#DC5E7D" d="M80.697,63.583c0,0-1.913,0.266-3.043,0.66c-0.809,0.283-1.812,0.912-2.241,1.193
		c-0.162-0.126-0.366-0.207-0.59-0.207H74.48c-0.226,0-0.428,0.081-0.595,0.207c-0.428-0.281-1.431-0.907-2.242-1.191
		c-1.126-0.392-3.043-0.653-3.043-0.653s-0.479,1.385-0.281,3.338c0.16,1.533,0.897,2.643,0.897,2.643s1.634-0.625,2.589-1.077
		c0.701-0.335,0.985-0.546,1.388-1.022c0.115-0.134,0.406-0.387,0.628-0.57c0.17,0.161,0.398,0.263,0.658,0.263h0.342
		c0.255,0,0.486-0.102,0.659-0.266c0.219,0.186,0.511,0.436,0.627,0.57c0.409,0.478,0.686,0.687,1.391,1.018
		c0.957,0.456,2.588,1.078,2.588,1.078s0.74-1.11,0.894-2.647C81.177,64.968,80.697,63.583,80.697,63.583z"/>
	<path fill="#433A33" d="M75.711,73.368c0,0.587-0.475,1.062-1.062,1.062c-0.589,0-1.064-0.475-1.064-1.062
		c0-0.589,0.475-1.066,1.064-1.066C75.236,72.301,75.711,72.778,75.711,73.368z"/>
	<circle fill="#433A33" cx="74.648" cy="79.999" r="1.063"/>
	<path fill="#EEEEEF" d="M84.46,74.266c0,0,0.035-0.579,0.87-1.175c0,0,2.635-2.024,3.184-2.874c0,0,0.726,0.617,0.917,2.548
		c0,0,1.568-0.68,2.024-1.173c0,0,0.537,0.626,0.325,2.895l-6.966,0.083L84.46,74.266z"/>
	<rect x="84.286" y="74.092" fill="#433A33" width="7.737" height="0.79"/>
	<path fill="#B9B0AF" d="M65.471,62.863c4.385,0,7.955-3.57,7.955-7.954c0-4.391-3.57-7.96-7.955-7.96
		c-4.387,0-7.956,3.57-7.956,7.96C57.515,59.293,61.083,62.863,65.471,62.863z"/>
	<path fill="#63534E" d="M65.47,60.929c3.323,0,6.021-2.7,6.021-6.02c0-3.328-2.698-6.025-6.021-6.025
		c-3.324,0-6.023,2.697-6.023,6.025C59.447,58.229,62.146,60.929,65.47,60.929z M65.47,50.969c2.168,0,3.934,1.766,3.934,3.94
		c0,2.165-1.766,3.932-3.934,3.932c-2.17,0-3.937-1.767-3.937-3.932C61.533,52.735,63.299,50.969,65.47,50.969z"/>
	<path fill="#B9B0AF" d="M83.83,62.863c4.386,0,7.953-3.57,7.953-7.954c0-4.391-3.567-7.96-7.953-7.96s-7.958,3.57-7.958,7.96
		C75.872,59.293,79.444,62.863,83.83,62.863z"/>
	<path fill="#63534E" d="M83.83,60.929c3.324,0,6.02-2.7,6.02-6.02c0-3.328-2.695-6.025-6.02-6.025
		c-3.323,0-6.021,2.697-6.021,6.025C77.808,58.229,80.506,60.929,83.83,60.929z M83.83,50.969c2.169,0,3.938,1.766,3.938,3.94
		c0,2.165-1.77,3.932-3.938,3.932c-2.17,0-3.934-1.767-3.934-3.932C79.896,52.735,81.66,50.969,83.83,50.969z"/>
	<g>
		<rect x="45.68" y="45.766" fill="#91C2D3" width="1.291" height="17.641"/>
		<path fill="#91C2D3" d="M46.971,45.838v-0.111c0-0.184-0.286-0.328-0.642-0.33c-0.356,0-0.646,0.144-0.646,0.321v0.12H46.971z"/>
	</g>
	<g>
		<rect x="102.261" y="65.334" fill="#91C2D3" width="1.288" height="17.637"/>
		<path fill="#91C2D3" d="M102.261,82.9v0.114c0,0.181,0.29,0.325,0.644,0.329c0.354,0.001,0.643-0.146,0.643-0.326V82.9H102.261z"
			/>
	</g>
	<circle fill="#63534E" cx="83.987" cy="54.809" r="4.615"/>
	<path fill="#433A33" d="M83.83,58.841c2.169,0,3.938-1.767,3.938-3.932c0-2.174-1.77-3.94-3.938-3.94
		c-2.17,0-3.934,1.766-3.934,3.94C79.896,57.074,81.66,58.841,83.83,58.841z"/>
	<path fill="#EEEEEF" d="M88.1,54.068c0,0.989-0.801,1.788-1.791,1.788c-0.986,0-1.791-0.799-1.791-1.788
		c0-0.99,0.805-1.792,1.791-1.792C87.299,52.276,88.1,53.079,88.1,54.068z"/>
	<circle fill="#63534E" cx="65.619" cy="54.827" r="4.56"/>
	<path fill="#433A33" d="M65.47,58.841c2.168,0,3.934-1.767,3.934-3.932c0-2.174-1.766-3.94-3.934-3.94
		c-2.17,0-3.937,1.766-3.937,3.94C61.533,57.074,63.299,58.841,65.47,58.841z"/>
	<circle fill="#EEEEEF" cx="67.949" cy="54.068" r="1.79"/>
	<text transform="matrix(1 0 0 1 136.9614 112.9155)" fill="#433A33" font-family="'HelveticaNeueLTStd-Roman'" font-size="3.2808">®</text>
</g>
</svg>
